<svg xmlns="http://www.w3.org/2000/svg" xmlns:svg="http://www.w3.org/2000/svg" id="svg22" width="40" height="26" version="1.1" viewBox="0 0 40 26"><metadata id="metadata26"/><defs id="defs15"><style id="style2" type="text/css">.cls-1,.cls-2{fill:#bababa}.cls-1{fill-rule:evenodd;opacity:.5}.cls-3{filter:url(#switch_button)}</style><filter id="switch_button" width="26" height="26" x="0" y="0" filterUnits="userSpaceOnUse"><feOffset id="feOffset4" dy="2"/><feGaussianBlur id="feGaussianBlur6" result="blur" stdDeviation="1"/><feFlood id="feFlood8" flood-opacity=".239"/><feComposite id="feComposite10" in2="blur" operator="in" result="result1"/><feComposite id="feComposite12" in="SourceGraphic" in2="result1"/></filter></defs><g id="switch_on" transform="rotate(180 20 10.5)"><path id="switch_path" d="M37 10a6.957 6.957 0 0 1-7 7H10a6.957 6.957 0 0 1-7-7 6.957 6.957 0 0 1 7-7h20a6.957 6.957 0 0 1 7 7z" class="cls-1" transform="translate(-3 .223)"/><g id="g19" class="cls-3" transform="rotate(180 20 10.5)"><path id="switch_button-2" d="M10 0A10 10 0 1 1 0 10 10 10 0 0 1 10 0z" class="cls-2" data-name="switch_button" transform="rotate(180 11.5 10.5)" style="fill:#b3b3b3;fill-opacity:1"/></g></g></svg>