<svg xmlns="http://www.w3.org/2000/svg" width="640" height="640" baseProfile="tiny" version="1.1"><rect width="640" height="640" x="0" y="0" fill="#fff" shape-rendering="optimizeSpeed"/><rect width="23" height="23" x="32" y="32" fill="#000" shape-rendering="optimizeSpeed"/><rect width="23" height="23" x="55" y="32" fill="#000" shape-rendering="optimizeSpeed"/><rect width="23" height="23" x="78" y="32" fill="#000" shape-rendering="optimizeSpeed"/><rect width="23" height="23" x="101" y="32" fill="#000" shape-rendering="optimizeSpeed"/><rect width="23" height="23" x="124" y="32" fill="#000" shape-rendering="optimizeSpeed"/><rect width="23" height="23" x="147" y="32" fill="#000" shape-rendering="optimizeSpeed"/><rect width="23" height="23" x="170" y="32" fill="#000" shape-rendering="optimizeSpeed"/><rect width="23" height="23" x="216" y="32" fill="#000" shape-rendering="optimizeSpeed"/><rect width="23" height="23" x="354" y="32" fill="#000" shape-rendering="optimizeSpeed"/><rect width="23" height="23" x="377" y="32" fill="#000" shape-rendering="optimizeSpeed"/><rect width="23" height="23" x="400" y="32" fill="#000" shape-rendering="optimizeSpeed"/><rect width="23" height="23" x="446" y="32" fill="#000" shape-rendering="optimizeSpeed"/><rect width="23" height="23" x="469" y="32" fill="#000" shape-rendering="optimizeSpeed"/><rect width="23" height="23" x="492" y="32" fill="#000" shape-rendering="optimizeSpeed"/><rect width="23" height="23" x="515" y="32" fill="#000" shape-rendering="optimizeSpeed"/><rect width="23" height="23" x="538" y="32" fill="#000" shape-rendering="optimizeSpeed"/><rect width="23" height="23" x="561" y="32" fill="#000" shape-rendering="optimizeSpeed"/><rect width="23" height="23" x="584" y="32" fill="#000" shape-rendering="optimizeSpeed"/><rect width="23" height="23" x="32" y="55" fill="#000" shape-rendering="optimizeSpeed"/><rect width="23" height="23" x="170" y="55" fill="#000" shape-rendering="optimizeSpeed"/><rect width="23" height="23" x="216" y="55" fill="#000" shape-rendering="optimizeSpeed"/><rect width="23" height="23" x="285" y="55" fill="#000" shape-rendering="optimizeSpeed"/><rect width="23" height="23" x="308" y="55" fill="#000" shape-rendering="optimizeSpeed"/><rect width="23" height="23" x="446" y="55" fill="#000" shape-rendering="optimizeSpeed"/><rect width="23" height="23" x="584" y="55" fill="#000" shape-rendering="optimizeSpeed"/><rect width="23" height="23" x="32" y="78" fill="#000" shape-rendering="optimizeSpeed"/><rect width="23" height="23" x="78" y="78" fill="#000" shape-rendering="optimizeSpeed"/><rect width="23" height="23" x="101" y="78" fill="#000" shape-rendering="optimizeSpeed"/><rect width="23" height="23" x="124" y="78" fill="#000" shape-rendering="optimizeSpeed"/><rect width="23" height="23" x="170" y="78" fill="#000" shape-rendering="optimizeSpeed"/><rect width="23" height="23" x="216" y="78" fill="#000" shape-rendering="optimizeSpeed"/><rect width="23" height="23" x="239" y="78" fill="#000" shape-rendering="optimizeSpeed"/><rect width="23" height="23" x="308" y="78" fill="#000" shape-rendering="optimizeSpeed"/><rect width="23" height="23" x="446" y="78" fill="#000" shape-rendering="optimizeSpeed"/><rect width="23" height="23" x="492" y="78" fill="#000" shape-rendering="optimizeSpeed"/><rect width="23" height="23" x="515" y="78" fill="#000" shape-rendering="optimizeSpeed"/><rect width="23" height="23" x="538" y="78" fill="#000" shape-rendering="optimizeSpeed"/><rect width="23" height="23" x="584" y="78" fill="#000" shape-rendering="optimizeSpeed"/><rect width="23" height="23" x="32" y="101" fill="#000" shape-rendering="optimizeSpeed"/><rect width="23" height="23" x="78" y="101" fill="#000" shape-rendering="optimizeSpeed"/><rect width="23" height="23" x="101" y="101" fill="#000" shape-rendering="optimizeSpeed"/><rect width="23" height="23" x="124" y="101" fill="#000" shape-rendering="optimizeSpeed"/><rect width="23" height="23" x="170" y="101" fill="#000" shape-rendering="optimizeSpeed"/><rect width="23" height="23" x="216" y="101" fill="#000" shape-rendering="optimizeSpeed"/><rect width="23" height="23" x="239" y="101" fill="#000" shape-rendering="optimizeSpeed"/><rect width="23" height="23" x="262" y="101" fill="#000" shape-rendering="optimizeSpeed"/><rect width="23" height="23" x="308" y="101" fill="#000" shape-rendering="optimizeSpeed"/><rect width="23" height="23" x="331" y="101" fill="#000" shape-rendering="optimizeSpeed"/><rect width="23" height="23" x="354" y="101" fill="#000" shape-rendering="optimizeSpeed"/><rect width="23" height="23" x="400" y="101" fill="#000" shape-rendering="optimizeSpeed"/><rect width="23" height="23" x="446" y="101" fill="#000" shape-rendering="optimizeSpeed"/><rect width="23" height="23" x="492" y="101" fill="#000" shape-rendering="optimizeSpeed"/><rect width="23" height="23" x="515" y="101" fill="#000" shape-rendering="optimizeSpeed"/><rect width="23" height="23" x="538" y="101" fill="#000" shape-rendering="optimizeSpeed"/><rect width="23" height="23" x="584" y="101" fill="#000" shape-rendering="optimizeSpeed"/><rect width="23" height="23" x="32" y="124" fill="#000" shape-rendering="optimizeSpeed"/><rect width="23" height="23" x="78" y="124" fill="#000" shape-rendering="optimizeSpeed"/><rect width="23" height="23" x="101" y="124" fill="#000" shape-rendering="optimizeSpeed"/><rect width="23" height="23" x="124" y="124" fill="#000" shape-rendering="optimizeSpeed"/><rect width="23" height="23" x="170" y="124" fill="#000" shape-rendering="optimizeSpeed"/><rect width="23" height="23" x="239" y="124" fill="#000" shape-rendering="optimizeSpeed"/><rect width="23" height="23" x="262" y="124" fill="#000" shape-rendering="optimizeSpeed"/><rect width="23" height="23" x="308" y="124" fill="#000" shape-rendering="optimizeSpeed"/><rect width="23" height="23" x="331" y="124" fill="#000" shape-rendering="optimizeSpeed"/><rect width="23" height="23" x="354" y="124" fill="#000" shape-rendering="optimizeSpeed"/><rect width="23" height="23" x="377" y="124" fill="#000" shape-rendering="optimizeSpeed"/><rect width="23" height="23" x="446" y="124" fill="#000" shape-rendering="optimizeSpeed"/><rect width="23" height="23" x="492" y="124" fill="#000" shape-rendering="optimizeSpeed"/><rect width="23" height="23" x="515" y="124" fill="#000" shape-rendering="optimizeSpeed"/><rect width="23" height="23" x="538" y="124" fill="#000" shape-rendering="optimizeSpeed"/><rect width="23" height="23" x="584" y="124" fill="#000" shape-rendering="optimizeSpeed"/><rect width="23" height="23" x="32" y="147" fill="#000" shape-rendering="optimizeSpeed"/><rect width="23" height="23" x="170" y="147" fill="#000" shape-rendering="optimizeSpeed"/><rect width="23" height="23" x="216" y="147" fill="#000" shape-rendering="optimizeSpeed"/><rect width="23" height="23" x="239" y="147" fill="#000" shape-rendering="optimizeSpeed"/><rect width="23" height="23" x="262" y="147" fill="#000" shape-rendering="optimizeSpeed"/><rect width="23" height="23" x="331" y="147" fill="#000" shape-rendering="optimizeSpeed"/><rect width="23" height="23" x="400" y="147" fill="#000" shape-rendering="optimizeSpeed"/><rect width="23" height="23" x="446" y="147" fill="#000" shape-rendering="optimizeSpeed"/><rect width="23" height="23" x="584" y="147" fill="#000" shape-rendering="optimizeSpeed"/><rect width="23" height="23" x="32" y="170" fill="#000" shape-rendering="optimizeSpeed"/><rect width="23" height="23" x="55" y="170" fill="#000" shape-rendering="optimizeSpeed"/><rect width="23" height="23" x="78" y="170" fill="#000" shape-rendering="optimizeSpeed"/><rect width="23" height="23" x="101" y="170" fill="#000" shape-rendering="optimizeSpeed"/><rect width="23" height="23" x="124" y="170" fill="#000" shape-rendering="optimizeSpeed"/><rect width="23" height="23" x="147" y="170" fill="#000" shape-rendering="optimizeSpeed"/><rect width="23" height="23" x="170" y="170" fill="#000" shape-rendering="optimizeSpeed"/><rect width="23" height="23" x="216" y="170" fill="#000" shape-rendering="optimizeSpeed"/><rect width="23" height="23" x="262" y="170" fill="#000" shape-rendering="optimizeSpeed"/><rect width="23" height="23" x="308" y="170" fill="#000" shape-rendering="optimizeSpeed"/><rect width="23" height="23" x="354" y="170" fill="#000" shape-rendering="optimizeSpeed"/><rect width="23" height="23" x="400" y="170" fill="#000" shape-rendering="optimizeSpeed"/><rect width="23" height="23" x="446" y="170" fill="#000" shape-rendering="optimizeSpeed"/><rect width="23" height="23" x="469" y="170" fill="#000" shape-rendering="optimizeSpeed"/><rect width="23" height="23" x="492" y="170" fill="#000" shape-rendering="optimizeSpeed"/><rect width="23" height="23" x="515" y="170" fill="#000" shape-rendering="optimizeSpeed"/><rect width="23" height="23" x="538" y="170" fill="#000" shape-rendering="optimizeSpeed"/><rect width="23" height="23" x="561" y="170" fill="#000" shape-rendering="optimizeSpeed"/><rect width="23" height="23" x="584" y="170" fill="#000" shape-rendering="optimizeSpeed"/><rect width="23" height="23" x="262" y="193" fill="#000" shape-rendering="optimizeSpeed"/><rect width="23" height="23" x="285" y="193" fill="#000" shape-rendering="optimizeSpeed"/><rect width="23" height="23" x="354" y="193" fill="#000" shape-rendering="optimizeSpeed"/><rect width="23" height="23" x="377" y="193" fill="#000" shape-rendering="optimizeSpeed"/><rect width="23" height="23" x="400" y="193" fill="#000" shape-rendering="optimizeSpeed"/><rect width="23" height="23" x="32" y="216" fill="#000" shape-rendering="optimizeSpeed"/><rect width="23" height="23" x="55" y="216" fill="#000" shape-rendering="optimizeSpeed"/><rect width="23" height="23" x="124" y="216" fill="#000" shape-rendering="optimizeSpeed"/><rect width="23" height="23" x="147" y="216" fill="#000" shape-rendering="optimizeSpeed"/><rect width="23" height="23" x="170" y="216" fill="#000" shape-rendering="optimizeSpeed"/><rect width="23" height="23" x="262" y="216" fill="#000" shape-rendering="optimizeSpeed"/><rect width="23" height="23" x="308" y="216" fill="#000" shape-rendering="optimizeSpeed"/><rect width="23" height="23" x="377" y="216" fill="#000" shape-rendering="optimizeSpeed"/><rect width="23" height="23" x="400" y="216" fill="#000" shape-rendering="optimizeSpeed"/><rect width="23" height="23" x="469" y="216" fill="#000" shape-rendering="optimizeSpeed"/><rect width="23" height="23" x="515" y="216" fill="#000" shape-rendering="optimizeSpeed"/><rect width="23" height="23" x="538" y="216" fill="#000" shape-rendering="optimizeSpeed"/><rect width="23" height="23" x="561" y="216" fill="#000" shape-rendering="optimizeSpeed"/><rect width="23" height="23" x="584" y="216" fill="#000" shape-rendering="optimizeSpeed"/><rect width="23" height="23" x="55" y="239" fill="#000" shape-rendering="optimizeSpeed"/><rect width="23" height="23" x="78" y="239" fill="#000" shape-rendering="optimizeSpeed"/><rect width="23" height="23" x="193" y="239" fill="#000" shape-rendering="optimizeSpeed"/><rect width="23" height="23" x="216" y="239" fill="#000" shape-rendering="optimizeSpeed"/><rect width="23" height="23" x="331" y="239" fill="#000" shape-rendering="optimizeSpeed"/><rect width="23" height="23" x="377" y="239" fill="#000" shape-rendering="optimizeSpeed"/><rect width="23" height="23" x="400" y="239" fill="#000" shape-rendering="optimizeSpeed"/><rect width="23" height="23" x="492" y="239" fill="#000" shape-rendering="optimizeSpeed"/><rect width="23" height="23" x="515" y="239" fill="#000" shape-rendering="optimizeSpeed"/><rect width="23" height="23" x="561" y="239" fill="#000" shape-rendering="optimizeSpeed"/><rect width="23" height="23" x="32" y="262" fill="#000" shape-rendering="optimizeSpeed"/><rect width="23" height="23" x="55" y="262" fill="#000" shape-rendering="optimizeSpeed"/><rect width="23" height="23" x="101" y="262" fill="#000" shape-rendering="optimizeSpeed"/><rect width="23" height="23" x="170" y="262" fill="#000" shape-rendering="optimizeSpeed"/><rect width="23" height="23" x="193" y="262" fill="#000" shape-rendering="optimizeSpeed"/><rect width="23" height="23" x="239" y="262" fill="#000" shape-rendering="optimizeSpeed"/><rect width="23" height="23" x="262" y="262" fill="#000" shape-rendering="optimizeSpeed"/><rect width="23" height="23" x="354" y="262" fill="#000" shape-rendering="optimizeSpeed"/><rect width="23" height="23" x="377" y="262" fill="#000" shape-rendering="optimizeSpeed"/><rect width="23" height="23" x="515" y="262" fill="#000" shape-rendering="optimizeSpeed"/><rect width="23" height="23" x="538" y="262" fill="#000" shape-rendering="optimizeSpeed"/><rect width="23" height="23" x="55" y="285" fill="#000" shape-rendering="optimizeSpeed"/><rect width="23" height="23" x="124" y="285" fill="#000" shape-rendering="optimizeSpeed"/><rect width="23" height="23" x="239" y="285" fill="#000" shape-rendering="optimizeSpeed"/><rect width="23" height="23" x="308" y="285" fill="#000" shape-rendering="optimizeSpeed"/><rect width="23" height="23" x="377" y="285" fill="#000" shape-rendering="optimizeSpeed"/><rect width="23" height="23" x="469" y="285" fill="#000" shape-rendering="optimizeSpeed"/><rect width="23" height="23" x="538" y="285" fill="#000" shape-rendering="optimizeSpeed"/><rect width="23" height="23" x="561" y="285" fill="#000" shape-rendering="optimizeSpeed"/><rect width="23" height="23" x="101" y="308" fill="#000" shape-rendering="optimizeSpeed"/><rect width="23" height="23" x="170" y="308" fill="#000" shape-rendering="optimizeSpeed"/><rect width="23" height="23" x="193" y="308" fill="#000" shape-rendering="optimizeSpeed"/><rect width="23" height="23" x="285" y="308" fill="#000" shape-rendering="optimizeSpeed"/><rect width="23" height="23" x="331" y="308" fill="#000" shape-rendering="optimizeSpeed"/><rect width="23" height="23" x="354" y="308" fill="#000" shape-rendering="optimizeSpeed"/><rect width="23" height="23" x="377" y="308" fill="#000" shape-rendering="optimizeSpeed"/><rect width="23" height="23" x="423" y="308" fill="#000" shape-rendering="optimizeSpeed"/><rect width="23" height="23" x="446" y="308" fill="#000" shape-rendering="optimizeSpeed"/><rect width="23" height="23" x="469" y="308" fill="#000" shape-rendering="optimizeSpeed"/><rect width="23" height="23" x="515" y="308" fill="#000" shape-rendering="optimizeSpeed"/><rect width="23" height="23" x="538" y="308" fill="#000" shape-rendering="optimizeSpeed"/><rect width="23" height="23" x="561" y="308" fill="#000" shape-rendering="optimizeSpeed"/><rect width="23" height="23" x="584" y="308" fill="#000" shape-rendering="optimizeSpeed"/><rect width="23" height="23" x="32" y="331" fill="#000" shape-rendering="optimizeSpeed"/><rect width="23" height="23" x="55" y="331" fill="#000" shape-rendering="optimizeSpeed"/><rect width="23" height="23" x="101" y="331" fill="#000" shape-rendering="optimizeSpeed"/><rect width="23" height="23" x="124" y="331" fill="#000" shape-rendering="optimizeSpeed"/><rect width="23" height="23" x="147" y="331" fill="#000" shape-rendering="optimizeSpeed"/><rect width="23" height="23" x="262" y="331" fill="#000" shape-rendering="optimizeSpeed"/><rect width="23" height="23" x="308" y="331" fill="#000" shape-rendering="optimizeSpeed"/><rect width="23" height="23" x="354" y="331" fill="#000" shape-rendering="optimizeSpeed"/><rect width="23" height="23" x="377" y="331" fill="#000" shape-rendering="optimizeSpeed"/><rect width="23" height="23" x="400" y="331" fill="#000" shape-rendering="optimizeSpeed"/><rect width="23" height="23" x="492" y="331" fill="#000" shape-rendering="optimizeSpeed"/><rect width="23" height="23" x="561" y="331" fill="#000" shape-rendering="optimizeSpeed"/><rect width="23" height="23" x="78" y="354" fill="#000" shape-rendering="optimizeSpeed"/><rect width="23" height="23" x="124" y="354" fill="#000" shape-rendering="optimizeSpeed"/><rect width="23" height="23" x="170" y="354" fill="#000" shape-rendering="optimizeSpeed"/><rect width="23" height="23" x="193" y="354" fill="#000" shape-rendering="optimizeSpeed"/><rect width="23" height="23" x="285" y="354" fill="#000" shape-rendering="optimizeSpeed"/><rect width="23" height="23" x="308" y="354" fill="#000" shape-rendering="optimizeSpeed"/><rect width="23" height="23" x="331" y="354" fill="#000" shape-rendering="optimizeSpeed"/><rect width="23" height="23" x="354" y="354" fill="#000" shape-rendering="optimizeSpeed"/><rect width="23" height="23" x="377" y="354" fill="#000" shape-rendering="optimizeSpeed"/><rect width="23" height="23" x="423" y="354" fill="#000" shape-rendering="optimizeSpeed"/><rect width="23" height="23" x="469" y="354" fill="#000" shape-rendering="optimizeSpeed"/><rect width="23" height="23" x="492" y="354" fill="#000" shape-rendering="optimizeSpeed"/><rect width="23" height="23" x="515" y="354" fill="#000" shape-rendering="optimizeSpeed"/><rect width="23" height="23" x="538" y="354" fill="#000" shape-rendering="optimizeSpeed"/><rect width="23" height="23" x="78" y="377" fill="#000" shape-rendering="optimizeSpeed"/><rect width="23" height="23" x="101" y="377" fill="#000" shape-rendering="optimizeSpeed"/><rect width="23" height="23" x="124" y="377" fill="#000" shape-rendering="optimizeSpeed"/><rect width="23" height="23" x="239" y="377" fill="#000" shape-rendering="optimizeSpeed"/><rect width="23" height="23" x="262" y="377" fill="#000" shape-rendering="optimizeSpeed"/><rect width="23" height="23" x="285" y="377" fill="#000" shape-rendering="optimizeSpeed"/><rect width="23" height="23" x="331" y="377" fill="#000" shape-rendering="optimizeSpeed"/><rect width="23" height="23" x="446" y="377" fill="#000" shape-rendering="optimizeSpeed"/><rect width="23" height="23" x="469" y="377" fill="#000" shape-rendering="optimizeSpeed"/><rect width="23" height="23" x="492" y="377" fill="#000" shape-rendering="optimizeSpeed"/><rect width="23" height="23" x="538" y="377" fill="#000" shape-rendering="optimizeSpeed"/><rect width="23" height="23" x="561" y="377" fill="#000" shape-rendering="optimizeSpeed"/><rect width="23" height="23" x="32" y="400" fill="#000" shape-rendering="optimizeSpeed"/><rect width="23" height="23" x="55" y="400" fill="#000" shape-rendering="optimizeSpeed"/><rect width="23" height="23" x="101" y="400" fill="#000" shape-rendering="optimizeSpeed"/><rect width="23" height="23" x="124" y="400" fill="#000" shape-rendering="optimizeSpeed"/><rect width="23" height="23" x="170" y="400" fill="#000" shape-rendering="optimizeSpeed"/><rect width="23" height="23" x="216" y="400" fill="#000" shape-rendering="optimizeSpeed"/><rect width="23" height="23" x="239" y="400" fill="#000" shape-rendering="optimizeSpeed"/><rect width="23" height="23" x="308" y="400" fill="#000" shape-rendering="optimizeSpeed"/><rect width="23" height="23" x="331" y="400" fill="#000" shape-rendering="optimizeSpeed"/><rect width="23" height="23" x="377" y="400" fill="#000" shape-rendering="optimizeSpeed"/><rect width="23" height="23" x="400" y="400" fill="#000" shape-rendering="optimizeSpeed"/><rect width="23" height="23" x="423" y="400" fill="#000" shape-rendering="optimizeSpeed"/><rect width="23" height="23" x="446" y="400" fill="#000" shape-rendering="optimizeSpeed"/><rect width="23" height="23" x="469" y="400" fill="#000" shape-rendering="optimizeSpeed"/><rect width="23" height="23" x="492" y="400" fill="#000" shape-rendering="optimizeSpeed"/><rect width="23" height="23" x="515" y="400" fill="#000" shape-rendering="optimizeSpeed"/><rect width="23" height="23" x="538" y="400" fill="#000" shape-rendering="optimizeSpeed"/><rect width="23" height="23" x="216" y="423" fill="#000" shape-rendering="optimizeSpeed"/><rect width="23" height="23" x="262" y="423" fill="#000" shape-rendering="optimizeSpeed"/><rect width="23" height="23" x="331" y="423" fill="#000" shape-rendering="optimizeSpeed"/><rect width="23" height="23" x="354" y="423" fill="#000" shape-rendering="optimizeSpeed"/><rect width="23" height="23" x="400" y="423" fill="#000" shape-rendering="optimizeSpeed"/><rect width="23" height="23" x="492" y="423" fill="#000" shape-rendering="optimizeSpeed"/><rect width="23" height="23" x="32" y="446" fill="#000" shape-rendering="optimizeSpeed"/><rect width="23" height="23" x="55" y="446" fill="#000" shape-rendering="optimizeSpeed"/><rect width="23" height="23" x="78" y="446" fill="#000" shape-rendering="optimizeSpeed"/><rect width="23" height="23" x="101" y="446" fill="#000" shape-rendering="optimizeSpeed"/><rect width="23" height="23" x="124" y="446" fill="#000" shape-rendering="optimizeSpeed"/><rect width="23" height="23" x="147" y="446" fill="#000" shape-rendering="optimizeSpeed"/><rect width="23" height="23" x="170" y="446" fill="#000" shape-rendering="optimizeSpeed"/><rect width="23" height="23" x="239" y="446" fill="#000" shape-rendering="optimizeSpeed"/><rect width="23" height="23" x="400" y="446" fill="#000" shape-rendering="optimizeSpeed"/><rect width="23" height="23" x="446" y="446" fill="#000" shape-rendering="optimizeSpeed"/><rect width="23" height="23" x="492" y="446" fill="#000" shape-rendering="optimizeSpeed"/><rect width="23" height="23" x="32" y="469" fill="#000" shape-rendering="optimizeSpeed"/><rect width="23" height="23" x="170" y="469" fill="#000" shape-rendering="optimizeSpeed"/><rect width="23" height="23" x="216" y="469" fill="#000" shape-rendering="optimizeSpeed"/><rect width="23" height="23" x="262" y="469" fill="#000" shape-rendering="optimizeSpeed"/><rect width="23" height="23" x="308" y="469" fill="#000" shape-rendering="optimizeSpeed"/><rect width="23" height="23" x="354" y="469" fill="#000" shape-rendering="optimizeSpeed"/><rect width="23" height="23" x="400" y="469" fill="#000" shape-rendering="optimizeSpeed"/><rect width="23" height="23" x="492" y="469" fill="#000" shape-rendering="optimizeSpeed"/><rect width="23" height="23" x="515" y="469" fill="#000" shape-rendering="optimizeSpeed"/><rect width="23" height="23" x="538" y="469" fill="#000" shape-rendering="optimizeSpeed"/><rect width="23" height="23" x="561" y="469" fill="#000" shape-rendering="optimizeSpeed"/><rect width="23" height="23" x="32" y="492" fill="#000" shape-rendering="optimizeSpeed"/><rect width="23" height="23" x="78" y="492" fill="#000" shape-rendering="optimizeSpeed"/><rect width="23" height="23" x="101" y="492" fill="#000" shape-rendering="optimizeSpeed"/><rect width="23" height="23" x="124" y="492" fill="#000" shape-rendering="optimizeSpeed"/><rect width="23" height="23" x="170" y="492" fill="#000" shape-rendering="optimizeSpeed"/><rect width="23" height="23" x="216" y="492" fill="#000" shape-rendering="optimizeSpeed"/><rect width="23" height="23" x="262" y="492" fill="#000" shape-rendering="optimizeSpeed"/><rect width="23" height="23" x="285" y="492" fill="#000" shape-rendering="optimizeSpeed"/><rect width="23" height="23" x="331" y="492" fill="#000" shape-rendering="optimizeSpeed"/><rect width="23" height="23" x="354" y="492" fill="#000" shape-rendering="optimizeSpeed"/><rect width="23" height="23" x="400" y="492" fill="#000" shape-rendering="optimizeSpeed"/><rect width="23" height="23" x="423" y="492" fill="#000" shape-rendering="optimizeSpeed"/><rect width="23" height="23" x="446" y="492" fill="#000" shape-rendering="optimizeSpeed"/><rect width="23" height="23" x="469" y="492" fill="#000" shape-rendering="optimizeSpeed"/><rect width="23" height="23" x="492" y="492" fill="#000" shape-rendering="optimizeSpeed"/><rect width="23" height="23" x="515" y="492" fill="#000" shape-rendering="optimizeSpeed"/><rect width="23" height="23" x="538" y="492" fill="#000" shape-rendering="optimizeSpeed"/><rect width="23" height="23" x="561" y="492" fill="#000" shape-rendering="optimizeSpeed"/><rect width="23" height="23" x="584" y="492" fill="#000" shape-rendering="optimizeSpeed"/><rect width="23" height="23" x="32" y="515" fill="#000" shape-rendering="optimizeSpeed"/><rect width="23" height="23" x="78" y="515" fill="#000" shape-rendering="optimizeSpeed"/><rect width="23" height="23" x="101" y="515" fill="#000" shape-rendering="optimizeSpeed"/><rect width="23" height="23" x="124" y="515" fill="#000" shape-rendering="optimizeSpeed"/><rect width="23" height="23" x="170" y="515" fill="#000" shape-rendering="optimizeSpeed"/><rect width="23" height="23" x="239" y="515" fill="#000" shape-rendering="optimizeSpeed"/><rect width="23" height="23" x="262" y="515" fill="#000" shape-rendering="optimizeSpeed"/><rect width="23" height="23" x="308" y="515" fill="#000" shape-rendering="optimizeSpeed"/><rect width="23" height="23" x="400" y="515" fill="#000" shape-rendering="optimizeSpeed"/><rect width="23" height="23" x="423" y="515" fill="#000" shape-rendering="optimizeSpeed"/><rect width="23" height="23" x="446" y="515" fill="#000" shape-rendering="optimizeSpeed"/><rect width="23" height="23" x="469" y="515" fill="#000" shape-rendering="optimizeSpeed"/><rect width="23" height="23" x="538" y="515" fill="#000" shape-rendering="optimizeSpeed"/><rect width="23" height="23" x="561" y="515" fill="#000" shape-rendering="optimizeSpeed"/><rect width="23" height="23" x="584" y="515" fill="#000" shape-rendering="optimizeSpeed"/><rect width="23" height="23" x="32" y="538" fill="#000" shape-rendering="optimizeSpeed"/><rect width="23" height="23" x="78" y="538" fill="#000" shape-rendering="optimizeSpeed"/><rect width="23" height="23" x="101" y="538" fill="#000" shape-rendering="optimizeSpeed"/><rect width="23" height="23" x="124" y="538" fill="#000" shape-rendering="optimizeSpeed"/><rect width="23" height="23" x="170" y="538" fill="#000" shape-rendering="optimizeSpeed"/><rect width="23" height="23" x="262" y="538" fill="#000" shape-rendering="optimizeSpeed"/><rect width="23" height="23" x="285" y="538" fill="#000" shape-rendering="optimizeSpeed"/><rect width="23" height="23" x="308" y="538" fill="#000" shape-rendering="optimizeSpeed"/><rect width="23" height="23" x="331" y="538" fill="#000" shape-rendering="optimizeSpeed"/><rect width="23" height="23" x="354" y="538" fill="#000" shape-rendering="optimizeSpeed"/><rect width="23" height="23" x="423" y="538" fill="#000" shape-rendering="optimizeSpeed"/><rect width="23" height="23" x="446" y="538" fill="#000" shape-rendering="optimizeSpeed"/><rect width="23" height="23" x="515" y="538" fill="#000" shape-rendering="optimizeSpeed"/><rect width="23" height="23" x="561" y="538" fill="#000" shape-rendering="optimizeSpeed"/><rect width="23" height="23" x="32" y="561" fill="#000" shape-rendering="optimizeSpeed"/><rect width="23" height="23" x="170" y="561" fill="#000" shape-rendering="optimizeSpeed"/><rect width="23" height="23" x="216" y="561" fill="#000" shape-rendering="optimizeSpeed"/><rect width="23" height="23" x="239" y="561" fill="#000" shape-rendering="optimizeSpeed"/><rect width="23" height="23" x="262" y="561" fill="#000" shape-rendering="optimizeSpeed"/><rect width="23" height="23" x="285" y="561" fill="#000" shape-rendering="optimizeSpeed"/><rect width="23" height="23" x="331" y="561" fill="#000" shape-rendering="optimizeSpeed"/><rect width="23" height="23" x="377" y="561" fill="#000" shape-rendering="optimizeSpeed"/><rect width="23" height="23" x="469" y="561" fill="#000" shape-rendering="optimizeSpeed"/><rect width="23" height="23" x="492" y="561" fill="#000" shape-rendering="optimizeSpeed"/><rect width="23" height="23" x="515" y="561" fill="#000" shape-rendering="optimizeSpeed"/><rect width="23" height="23" x="538" y="561" fill="#000" shape-rendering="optimizeSpeed"/><rect width="23" height="23" x="561" y="561" fill="#000" shape-rendering="optimizeSpeed"/><rect width="23" height="23" x="32" y="584" fill="#000" shape-rendering="optimizeSpeed"/><rect width="23" height="23" x="55" y="584" fill="#000" shape-rendering="optimizeSpeed"/><rect width="23" height="23" x="78" y="584" fill="#000" shape-rendering="optimizeSpeed"/><rect width="23" height="23" x="101" y="584" fill="#000" shape-rendering="optimizeSpeed"/><rect width="23" height="23" x="124" y="584" fill="#000" shape-rendering="optimizeSpeed"/><rect width="23" height="23" x="147" y="584" fill="#000" shape-rendering="optimizeSpeed"/><rect width="23" height="23" x="170" y="584" fill="#000" shape-rendering="optimizeSpeed"/><rect width="23" height="23" x="216" y="584" fill="#000" shape-rendering="optimizeSpeed"/><rect width="23" height="23" x="239" y="584" fill="#000" shape-rendering="optimizeSpeed"/><rect width="23" height="23" x="308" y="584" fill="#000" shape-rendering="optimizeSpeed"/><rect width="23" height="23" x="331" y="584" fill="#000" shape-rendering="optimizeSpeed"/><rect width="23" height="23" x="377" y="584" fill="#000" shape-rendering="optimizeSpeed"/><rect width="23" height="23" x="423" y="584" fill="#000" shape-rendering="optimizeSpeed"/><rect width="23" height="23" x="446" y="584" fill="#000" shape-rendering="optimizeSpeed"/><rect width="23" height="23" x="538" y="584" fill="#000" shape-rendering="optimizeSpeed"/><rect width="23" height="23" x="561" y="584" fill="#000" shape-rendering="optimizeSpeed"/><rect width="23" height="23" x="584" y="584" fill="#000" shape-rendering="optimizeSpeed"/></svg>